<svg id="elOVowmBnSR1" xmlns="http://www.w3.org/2000/svg" xmlns:xlink="http://www.w3.org/1999/xlink" viewBox="0 0 300 300" shape-rendering="geometricPrecision" text-rendering="geometricPrecision" project-id="dc4fd3d769804477860d272136a8d132" export-id="1a8f86ae522b45b989555bcc300d350e" cached="false"><path d="M76.941176,96.705882Q182.117647,150,178.588235,141.176471l-24-40.941178-39.529411,100.941176-63.529412-90.352942l66.35294-38.117647" transform="translate(.000002 0.000002)" fill="none" stroke="#3f5787" stroke-width="0.6"/><path d="M150,78.352941c4.588237,0,20.081031-35.014514,10.235294,18.352943-9.9833,54.113096,86.799698,95.040189,79.764706,70.588234-.276012-.959352,97.411765,58.588235,12,79.058823s-283.058824,129.176469-158.117648-15.529413-26.823529-108.705883-26.823529-114.352942s2.823528-26.117649,3.529411-27.529413.705883-37.411766,61.411765-20.470589s92.470589,16.941182,83.294118,72.705885s75.529412,71.294116-19.764706,59.999998-410.754305.909335-190.588236-74.117647C226.602381,51.522334,160.375983,24.635531,149.999999,28.941172c-4.433926,1.839912-24.352937,14.117647-34.941174,14.117647s100.235291,57.176466,119.294115,77.647057-58.868378,2.899644-53.647059,8.470588c90.30191,96.348614-53.607206,20.953952-171.529411-99.529413Q7.140712,27.567078,226.588234,58.588227" transform="translate(.000001 0.000008)" fill="none" stroke="#3f5787" stroke-width="0.6"/><ellipse rx="44.117647" ry="80.823529" transform="translate(128.823529 153.529411)" fill="#d2dbed" stroke-width="0"/></svg>
